<svg width="895" height="913" viewBox="0 0 895 913" fill="none" xmlns="http://www.w3.org/2000/svg">
<g clip-path="url(#clip0_5_2)">
<path d="M282.469 300.75C284.578 300.828 286.375 301.609 287.859 303.094C289.344 304.5 290.125 306.258 290.203 308.367V365.789C289.734 370.477 287.156 373.016 282.469 373.406C280.281 373.406 278.367 372.703 276.727 371.297C275.164 369.812 274.383 367.977 274.383 365.789V308.367C274.461 306.18 275.281 304.383 276.844 302.977C278.406 301.492 280.281 300.75 282.469 300.75ZM302.508 321.375C307.742 317.859 314.812 314.305 323.719 310.711L342.938 302.508C343.797 302.117 344.734 301.883 345.75 301.805C347.938 301.648 349.812 302.312 351.375 303.797C352.938 305.203 353.719 307.039 353.719 309.305C353.719 311.883 353.172 313.797 352.078 315.047C351.062 316.219 349.734 317.195 348.094 317.977L331.688 324.188C328.484 325.438 325.438 326.688 322.547 327.938C319.734 329.109 317.156 330.477 314.812 332.039C312.469 333.445 311.219 335.047 311.062 336.844C311.219 338.562 312.469 340.164 314.812 341.648C317.156 343.211 319.734 344.617 322.547 345.867C325.438 347.039 328.484 348.25 331.688 349.5L349.969 356.18C351.609 356.961 352.938 357.977 353.953 359.227C355.047 360.398 355.594 362.273 355.594 364.852C355.594 367.117 354.812 368.992 353.25 370.477C351.688 371.883 349.812 372.508 347.625 372.352C346.609 372.273 345.672 372.039 344.812 371.648L323.719 362.977C314.812 359.383 307.703 355.828 302.391 352.312C297.156 348.719 294.5 343.562 294.422 336.844C294.5 330.125 297.195 324.969 302.508 321.375ZM391.453 371.766C384.578 371.531 379.383 369.93 375.867 366.961C372.352 363.914 369.812 360.516 368.25 356.766C366.688 352.938 365.906 349.07 365.906 345.164C365.906 341.102 366.648 337.195 368.133 333.445C369.695 329.617 372.234 326.219 375.75 323.25C379.344 320.203 383.875 318.641 389.344 318.562H433.875C436.062 318.562 437.898 319.305 439.383 320.789C440.945 322.195 441.727 323.914 441.727 325.945C441.727 328.055 440.945 329.852 439.383 331.336C437.898 332.742 436.062 333.445 433.875 333.445H390.047C388.328 333.445 386.805 334.031 385.477 335.203C384.227 336.375 383.289 337.898 382.664 339.773C382.117 341.648 381.844 343.484 381.844 345.281C381.844 347.234 382.117 349.148 382.664 351.023C383.289 352.898 384.227 354.422 385.477 355.594C386.805 356.688 388.328 357.273 390.047 357.352H433.875C436.062 357.352 437.898 358.055 439.383 359.461C440.945 360.867 441.727 362.547 441.727 364.5C441.727 366.531 440.945 368.25 439.383 369.656C437.898 371.062 436.062 371.766 433.875 371.766H391.453ZM440.32 344.93C440.32 346.414 439.656 347.703 438.328 348.797C437.156 349.812 435.672 350.32 433.875 350.32H395.555C393.758 350.32 392.234 349.812 390.984 348.797C389.734 347.703 389.109 346.414 389.109 344.93C389.109 343.523 389.734 342.273 390.984 341.18C392.234 340.164 393.758 339.656 395.555 339.656H433.875C435.672 339.656 437.195 340.203 438.445 341.297C439.695 342.312 440.32 343.523 440.32 344.93ZM463.055 317.156C465.242 317.156 467.117 317.898 468.68 319.383C470.242 320.789 471.062 322.586 471.141 324.773V336.609C471.062 339.812 471.258 342.781 471.727 345.516C472.273 348.172 473.523 350.555 475.477 352.664C477.43 354.773 479.891 355.906 482.859 356.062H514.148V325.008C514.148 322.82 514.93 321.023 516.492 319.617C518.133 318.133 520.047 317.391 522.234 317.391C526.922 317.781 529.5 320.32 529.969 325.008V363.211C529.969 369.461 529.109 375.359 527.391 380.906C525.828 385.828 523.25 389.969 519.656 393.328C516.141 396.766 511.648 398.641 506.18 398.953H465.633C463.523 398.875 461.727 398.094 460.242 396.609C458.836 395.203 458.094 393.445 458.016 391.336C458.016 389.148 458.719 387.273 460.125 385.711C461.609 384.148 463.445 383.328 465.633 383.25H502.195C505.164 383.094 507.625 381.961 509.578 379.852C511.531 377.742 512.781 375.281 513.328 372.469C513.406 372.234 513.445 372 513.445 371.766H478.875C473.406 371.453 468.875 369.617 465.281 366.258C461.766 362.82 459.227 358.641 457.664 353.719C456.18 348.797 455.398 343.562 455.32 338.016V324.773C455.398 322.664 456.18 320.906 457.664 319.5C459.148 318.016 460.945 317.234 463.055 317.156ZM619.734 325.359C619.734 327.312 618.953 328.953 617.391 330.281C615.906 331.531 614.07 332.156 611.883 332.156H562.312C561.297 332.156 560.477 332.352 559.852 332.742C559.227 333.133 558.758 333.562 558.445 334.031C558.133 334.422 557.977 334.773 557.977 335.086C557.977 335.477 558.133 335.906 558.445 336.375C558.758 336.766 559.227 337.156 559.852 337.547C560.477 337.859 561.297 338.055 562.312 338.133H600.633C605.555 338.211 609.617 339.188 612.82 341.062C616.023 342.859 618.289 345.008 619.617 347.508C621.023 349.93 621.727 352.391 621.727 354.891C621.727 357.312 621.023 359.773 619.617 362.273C618.211 364.695 615.906 366.844 612.703 368.719C609.578 370.516 605.555 371.414 600.633 371.414C599.773 371.492 599.148 371.531 598.758 371.531H553.289C551.102 371.531 549.227 370.906 547.664 369.656C546.18 368.328 545.438 366.727 545.438 364.852C545.438 362.898 546.219 361.258 547.781 359.93C549.266 358.68 551.102 358.055 553.289 358.055H601.57C602.742 358.133 603.68 357.977 604.383 357.586C605.164 357.195 605.75 356.766 606.141 356.297C606.531 355.828 606.727 355.359 606.727 354.891C606.727 354.656 606.531 354.266 606.141 353.719C605.75 353.094 605.164 352.625 604.383 352.312C603.68 351.922 602.742 351.688 601.57 351.609H563.133C558.602 351.531 554.852 350.594 551.883 348.797C548.914 346.922 546.805 344.773 545.555 342.352C544.305 339.93 543.68 337.508 543.68 335.086C543.68 332.664 544.305 330.281 545.555 327.938C546.883 325.516 548.992 323.445 551.883 321.727C554.852 319.93 558.602 318.953 563.133 318.797C563.914 318.719 564.5 318.68 564.891 318.68H611.883C614.07 318.68 615.906 319.344 617.391 320.672C618.953 321.922 619.734 323.484 619.734 325.359Z" fill="black"/>
<path d="M128.75 484.602C128.75 482.414 129.492 480.578 130.977 479.094C132.539 477.531 134.414 476.75 136.602 476.75H154.531L151.484 468.078C150.234 464.875 148.984 461.867 147.734 459.055C146.562 456.164 145.195 453.547 143.633 451.203C142.227 448.859 140.625 447.609 138.828 447.453C136.953 447.609 135.273 448.859 133.789 451.203C132.305 453.547 130.938 456.164 129.688 459.055C128.516 461.867 127.305 464.875 126.055 468.078L114.922 498.547C114.141 500.188 113.125 501.555 111.875 502.648C110.703 503.664 108.906 504.172 106.484 504.172C104.219 504.172 102.344 503.391 100.859 501.828C99.4531 500.266 98.8281 498.391 98.9844 496.203C99.0625 495.188 99.2969 494.25 99.6875 493.391L112.578 460.109C116.172 451.359 119.766 444.289 123.359 438.898C126.875 433.586 132.031 430.891 138.828 430.812C145.547 430.891 150.664 433.586 154.18 438.898C157.773 444.133 161.367 451.203 164.961 460.109L177.852 493.391C178.242 494.25 178.477 495.188 178.555 496.203C178.711 498.391 178.047 500.266 176.562 501.828C175.156 503.391 173.32 504.172 171.055 504.172C168.477 504.172 166.562 503.664 165.312 502.648C164.141 501.555 163.164 500.188 162.383 498.547L160.156 492.453H136.602C134.414 492.453 132.578 491.672 131.094 490.109C129.531 488.625 128.75 486.789 128.75 484.602ZM227.656 447.805C231.719 447.805 235.703 448.273 239.609 449.211C243.594 450.148 247.383 451.555 250.977 453.43C254.57 455.227 257.734 457.648 260.469 460.695C263.281 463.742 264.805 467.375 265.039 471.594V476.516V496.555C264.57 501.242 261.992 503.781 257.305 504.172C255.117 504.172 253.203 503.469 251.562 502.062C250 500.578 249.219 498.742 249.219 496.555V491.398V475.227C249.062 472.805 248.125 470.812 246.406 469.25C244.766 467.609 242.891 466.32 240.781 465.383C238.75 464.445 236.602 463.742 234.336 463.273C232.148 462.805 229.922 462.57 227.656 462.57C225.391 462.57 223.125 462.805 220.859 463.273C218.672 463.742 216.523 464.445 214.414 465.383C212.383 466.32 210.508 467.609 208.789 469.25C207.148 470.812 206.25 472.805 206.094 475.227V491.398V496.555C205.703 501.242 203.164 503.781 198.477 504.172C196.289 504.172 194.375 503.469 192.734 502.062C191.172 500.578 190.391 498.742 190.391 496.555V476.516V471.594C190.625 467.375 192.109 463.742 194.844 460.695C197.578 457.648 200.742 455.227 204.336 453.43C207.93 451.555 211.68 450.148 215.586 449.211C219.57 448.273 223.594 447.805 227.656 447.805ZM288.008 448.391C290.117 448.469 291.914 449.25 293.398 450.734C294.883 452.141 295.664 453.898 295.742 456.008V496.555C295.273 501.242 292.695 503.781 288.008 504.172C285.82 504.172 283.906 503.469 282.266 502.062C280.703 500.578 279.922 498.742 279.922 496.555V456.008C280 453.82 280.82 452.023 282.383 450.617C283.945 449.133 285.82 448.391 288.008 448.391ZM278.164 433.156C278.164 430.969 279.102 429.094 280.977 427.531C282.852 425.969 285.117 425.188 287.773 425.188C290.43 425.188 292.695 425.969 294.57 427.531C296.445 429.094 297.383 430.969 297.383 433.156C297.383 435.422 296.445 437.336 294.57 438.898C292.695 440.461 290.43 441.242 287.773 441.242C285.117 441.242 282.852 440.461 280.977 438.898C279.102 437.336 278.164 435.422 278.164 433.156ZM334.883 447.805C337.617 447.805 340.273 448.273 342.852 449.211C345.508 450.148 348.047 451.516 350.469 453.312C350.859 453.703 351.289 454.094 351.758 454.484C352.148 454.094 352.578 453.703 353.047 453.312C355.469 451.516 357.969 450.148 360.547 449.211C363.203 448.273 365.859 447.805 368.516 447.805C371.25 447.805 373.906 448.273 376.484 449.211C379.141 450.148 381.641 451.555 383.984 453.43C386.406 455.227 388.516 457.648 390.312 460.695C392.188 463.742 393.125 467.375 393.125 471.594V496.555C392.656 501.242 390.078 503.781 385.391 504.172C383.203 504.172 381.289 503.469 379.648 502.062C378.086 500.578 377.305 498.742 377.305 496.555V472.531C377.305 470.656 376.953 469.094 376.25 467.844C375.547 466.516 374.766 465.5 373.906 464.797C373.047 464.016 372.148 463.469 371.211 463.156C370.273 462.766 369.336 462.57 368.398 462.57C367.461 462.57 366.523 462.766 365.586 463.156C364.727 463.469 363.867 464.016 363.008 464.797C362.148 465.5 361.367 466.516 360.664 467.844C359.961 469.094 359.57 470.656 359.492 472.531V496.555C359.023 501.242 356.445 503.781 351.758 504.172C349.57 504.172 347.656 503.469 346.016 502.062C344.453 500.578 343.672 498.742 343.672 496.555V472.531C343.672 470.656 343.32 469.094 342.617 467.844C341.914 466.516 341.133 465.5 340.273 464.797C339.414 464.016 338.516 463.469 337.578 463.156C336.641 462.766 335.703 462.57 334.766 462.57C333.828 462.57 332.891 462.766 331.953 463.156C331.094 463.469 330.234 464.016 329.375 464.797C328.516 465.5 327.734 466.516 327.031 467.844C326.328 469.094 325.938 470.656 325.859 472.531V496.555C325.469 501.242 322.93 503.781 318.242 504.172C316.055 504.172 314.141 503.469 312.5 502.062C310.938 500.578 310.156 498.742 310.156 496.555V471.594C310.312 467.375 311.289 463.742 313.086 460.695C314.883 457.648 316.992 455.227 319.414 453.43C321.836 451.555 324.336 450.148 326.914 449.211C329.57 448.273 332.227 447.805 334.883 447.805ZM473.164 496.555V468.312C473.164 466.359 472.148 465.344 470.117 465.266H429.102C427.617 465.344 426.328 466.008 425.234 467.258C424.141 468.43 423.32 469.836 422.773 471.477C422.305 473.039 422.07 474.641 422.07 476.281C422.07 477.844 422.305 479.445 422.773 481.086C423.32 482.648 424.141 484.055 425.234 485.305C426.328 486.477 427.617 487.062 429.102 487.062H459.102C461.289 487.062 463.125 487.844 464.609 489.406C466.172 490.891 466.953 492.727 466.953 494.914C466.953 497.102 466.172 498.938 464.609 500.422C463.125 501.984 461.289 502.766 459.102 502.766H429.57C424.102 502.688 419.57 501.164 415.977 498.195C412.461 495.148 409.922 491.75 408.359 488C406.875 484.172 406.133 480.227 406.133 476.164C406.133 472.258 406.914 468.43 408.477 464.68C410.039 460.852 412.578 457.453 416.094 454.484C419.609 451.438 424.805 449.797 431.68 449.562H480.898C483.086 449.562 484.961 450.305 486.523 451.789C488.086 453.195 488.906 454.992 488.984 457.18V496.555C488.984 498.742 488.164 500.578 486.523 502.062C484.961 503.469 483.086 504.172 480.898 504.172C476.211 503.781 473.633 501.242 473.164 496.555ZM527.891 502.766C521.016 502.531 515.82 500.93 512.305 497.961C508.789 494.914 506.25 491.516 504.688 487.766C503.125 483.938 502.344 480.07 502.344 476.164C502.344 472.102 503.086 468.195 504.57 464.445C506.133 460.617 508.672 457.219 512.188 454.25C515.781 451.203 520.312 449.641 525.781 449.562H570.312C572.5 449.562 574.336 450.344 575.82 451.906C577.383 453.391 578.164 455.227 578.164 457.414C578.164 459.602 577.383 461.477 575.82 463.039C574.336 464.523 572.5 465.266 570.312 465.266H525.312C523.828 465.266 522.539 465.891 521.445 467.141C520.352 468.312 519.531 469.719 518.984 471.359C518.516 472.922 518.281 474.484 518.281 476.047C518.281 477.688 518.516 479.328 518.984 480.969C519.531 482.531 520.352 483.938 521.445 485.188C522.539 486.359 523.828 486.984 525.312 487.062H570.312C572.5 487.062 574.336 487.844 575.82 489.406C577.383 490.891 578.164 492.727 578.164 494.914C578.164 497.102 577.383 498.938 575.82 500.422C574.336 501.984 572.5 502.766 570.312 502.766H527.891ZM598.555 448.391C600.664 448.469 602.461 449.25 603.945 450.734C605.43 452.141 606.211 453.898 606.289 456.008V496.555C605.82 501.242 603.242 503.781 598.555 504.172C596.367 504.172 594.453 503.469 592.812 502.062C591.25 500.578 590.469 498.742 590.469 496.555V456.008C590.547 453.82 591.367 452.023 592.93 450.617C594.492 449.133 596.367 448.391 598.555 448.391ZM588.711 433.156C588.711 430.969 589.648 429.094 591.523 427.531C593.398 425.969 595.664 425.188 598.32 425.188C600.977 425.188 603.242 425.969 605.117 427.531C606.992 429.094 607.93 430.969 607.93 433.156C607.93 435.422 606.992 437.336 605.117 438.898C603.242 440.461 600.977 441.242 598.32 441.242C595.664 441.242 593.398 440.461 591.523 438.898C589.648 437.336 588.711 435.422 588.711 433.156ZM644.844 502.766C637.969 502.531 632.773 500.93 629.258 497.961C625.742 494.914 623.203 491.516 621.641 487.766C620.078 483.938 619.297 480.07 619.297 476.164C619.297 472.102 620.039 468.195 621.523 464.445C623.086 460.617 625.625 457.219 629.141 454.25C632.734 451.203 637.266 449.641 642.734 449.562H680.703C686.172 449.641 690.664 451.203 694.18 454.25C697.773 457.219 700.312 460.617 701.797 464.445C703.359 468.195 704.141 472.102 704.141 476.164C704.141 480.07 703.359 483.938 701.797 487.766C700.234 491.516 697.695 494.914 694.18 497.961C690.664 500.93 685.469 502.531 678.594 502.766H644.844ZM642.266 465.266C640.781 465.266 639.492 465.891 638.398 467.141C637.305 468.312 636.484 469.719 635.938 471.359C635.469 472.922 635.234 474.484 635.234 476.047C635.234 477.688 635.469 479.328 635.938 480.969C636.484 482.531 637.305 483.938 638.398 485.188C639.492 486.359 640.781 486.984 642.266 487.062H681.172C682.656 486.984 683.945 486.359 685.039 485.188C686.133 483.938 686.914 482.531 687.383 480.969C687.93 479.328 688.203 477.688 688.203 476.047C688.203 474.484 687.93 472.922 687.383 471.359C686.914 469.719 686.133 468.312 685.039 467.141C683.945 465.891 682.656 465.266 681.172 465.266H642.266ZM755 447.805C759.062 447.805 763.047 448.273 766.953 449.211C770.938 450.148 774.727 451.555 778.32 453.43C781.914 455.227 785.078 457.648 787.812 460.695C790.625 463.742 792.148 467.375 792.383 471.594V476.516V496.555C791.914 501.242 789.336 503.781 784.648 504.172C782.461 504.172 780.547 503.469 778.906 502.062C777.344 500.578 776.562 498.742 776.562 496.555V491.398V475.227C776.406 472.805 775.469 470.812 773.75 469.25C772.109 467.609 770.234 466.32 768.125 465.383C766.094 464.445 763.945 463.742 761.68 463.273C759.492 462.805 757.266 462.57 755 462.57C752.734 462.57 750.469 462.805 748.203 463.273C746.016 463.742 743.867 464.445 741.758 465.383C739.727 466.32 737.852 467.609 736.133 469.25C734.492 470.812 733.594 472.805 733.438 475.227V491.398V496.555C733.047 501.242 730.508 503.781 725.82 504.172C723.633 504.172 721.719 503.469 720.078 502.062C718.516 500.578 717.734 498.742 717.734 496.555V476.516V471.594C717.969 467.375 719.453 463.742 722.188 460.695C724.922 457.648 728.086 455.227 731.68 453.43C735.273 451.555 739.023 450.148 742.93 449.211C746.914 448.273 750.938 447.805 755 447.805Z" fill="black"/>
</g>
<path d="M502.656 520.034C500.557 520.484 498.684 521.663 497.37 523.361C496.055 525.059 495.384 527.167 495.475 529.313V711.243C495.262 712.545 495.334 713.877 495.687 715.148C496.04 716.419 496.665 717.598 497.519 718.603C498.373 719.608 499.435 720.416 500.632 720.97C501.829 721.524 503.133 721.81 504.452 721.81C505.771 721.81 507.074 721.524 508.271 720.97C509.468 720.416 510.531 719.608 511.384 718.603C512.238 717.598 512.864 716.419 513.217 715.148C513.569 713.877 513.642 712.545 513.429 711.243V529.313C513.459 528.034 513.219 526.763 512.725 525.583C512.231 524.403 511.494 523.341 510.561 522.465C509.629 521.589 508.522 520.92 507.313 520.502C506.105 520.083 504.821 519.923 503.547 520.034C503.25 520.02 502.953 520.02 502.656 520.034ZM387.753 529.609C385.653 530.06 383.781 531.238 382.466 532.936C381.152 534.634 380.481 536.743 380.571 538.888V701.668C380.358 702.969 380.431 704.302 380.783 705.573C381.136 706.844 381.762 708.023 382.616 709.028C383.469 710.033 384.532 710.841 385.729 711.394C386.926 711.948 388.229 712.235 389.548 712.235C390.867 712.235 392.17 711.948 393.368 711.394C394.565 710.841 395.627 710.033 396.481 709.028C397.335 708.023 397.96 706.844 398.313 705.573C398.666 704.302 398.738 702.969 398.525 701.668V538.888C398.555 537.609 398.316 536.338 397.822 535.158C397.328 533.978 396.59 532.916 395.658 532.04C394.725 531.165 393.618 530.496 392.41 530.077C391.201 529.658 389.918 529.499 388.643 529.609C388.347 529.595 388.05 529.595 387.753 529.609ZM473.93 558.335C471.831 558.785 469.958 559.964 468.644 561.662C467.33 563.36 466.658 565.468 466.749 567.614V672.942C466.531 674.245 466.6 675.581 466.95 676.855C467.301 678.129 467.925 679.311 468.779 680.32C469.633 681.328 470.696 682.139 471.895 682.694C473.094 683.25 474.4 683.538 475.721 683.538C477.043 683.538 478.348 683.25 479.547 682.694C480.746 682.139 481.809 681.328 482.663 680.32C483.517 679.311 484.141 678.129 484.492 676.855C484.842 675.581 484.911 674.245 484.693 672.942V567.614C484.723 566.337 484.484 565.068 483.991 563.889C483.498 562.711 482.763 561.649 481.832 560.774C480.902 559.899 479.797 559.229 478.591 558.809C477.385 558.389 476.103 558.227 474.831 558.335C474.528 558.32 474.234 558.32 473.93 558.335ZM359.027 567.911C356.927 568.361 355.055 569.539 353.74 571.237C352.426 572.935 351.755 575.044 351.846 577.189V663.367C351.628 664.67 351.696 666.005 352.047 667.279C352.398 668.554 353.021 669.736 353.875 670.744C354.729 671.753 355.793 672.563 356.992 673.119C358.191 673.675 359.496 673.963 360.818 673.963C362.139 673.963 363.445 673.675 364.644 673.119C365.842 672.563 366.906 671.753 367.76 670.744C368.614 669.736 369.238 668.554 369.588 667.279C369.939 666.005 370.008 664.67 369.79 663.367V577.189C369.82 575.912 369.581 574.643 369.088 573.464C368.595 572.286 367.859 571.225 366.929 570.349C365.998 569.474 364.894 568.804 363.688 568.384C362.481 567.964 361.2 567.803 359.927 567.911C359.624 567.895 359.33 567.895 359.027 567.911ZM416.479 577.486C414.379 577.936 412.507 579.114 411.192 580.813C409.878 582.511 409.207 584.619 409.297 586.764V653.791C409.079 655.095 409.148 656.43 409.499 657.704C409.849 658.978 410.473 660.161 411.327 661.169C412.181 662.178 413.244 662.988 414.443 663.544C415.642 664.1 416.948 664.388 418.269 664.388C419.591 664.388 420.896 664.1 422.095 663.544C423.294 662.988 424.358 662.178 425.212 661.169C426.065 660.161 426.689 658.978 427.04 657.704C427.391 656.43 427.459 655.095 427.241 653.791V586.764C427.272 585.487 427.032 584.218 426.539 583.04C426.046 581.861 425.311 580.8 424.38 579.924C423.45 579.049 422.346 578.38 421.139 577.959C419.933 577.539 418.652 577.378 417.379 577.486C417.076 577.471 416.782 577.471 416.479 577.486ZM531.382 577.486C529.283 577.936 527.41 579.114 526.096 580.813C524.781 582.511 524.11 584.619 524.201 586.764V653.791C523.988 655.093 524.06 656.425 524.413 657.696C524.766 658.967 525.391 660.146 526.245 661.151C527.099 662.157 528.161 662.964 529.358 663.518C530.555 664.072 531.859 664.359 533.178 664.359C534.497 664.359 535.8 664.072 536.997 663.518C538.194 662.964 539.256 662.157 540.11 661.151C540.964 660.146 541.589 658.967 541.942 657.696C542.295 656.425 542.368 655.093 542.154 653.791V586.764C542.185 585.486 541.945 584.215 541.451 583.035C540.957 581.855 540.22 580.792 539.287 579.917C538.355 579.041 537.248 578.372 536.039 577.953C534.831 577.534 533.547 577.375 532.273 577.486C531.976 577.471 531.679 577.471 531.382 577.486ZM330.301 596.636C328.202 597.087 326.329 598.265 325.015 599.963C323.7 601.661 323.029 603.77 323.12 605.915V634.641C322.906 635.942 322.979 637.275 323.332 638.546C323.685 639.817 324.31 640.996 325.164 642.001C326.018 643.006 327.08 643.814 328.277 644.367C329.474 644.921 330.778 645.208 332.097 645.208C333.416 645.208 334.719 644.921 335.916 644.367C337.113 643.814 338.175 643.006 339.029 642.001C339.883 640.996 340.508 639.817 340.861 638.546C341.214 637.275 341.287 635.942 341.073 634.641V605.915C341.104 604.636 340.864 603.365 340.37 602.185C339.876 601.005 339.139 599.943 338.206 599.067C337.273 598.192 336.167 597.523 334.958 597.104C333.749 596.685 332.466 596.526 331.192 596.636C330.892 596.622 330.591 596.622 330.292 596.636H330.301ZM445.205 596.636C443.105 597.087 441.232 598.265 439.918 599.963C438.604 601.661 437.933 603.77 438.023 605.915V634.641C437.805 635.944 437.874 637.279 438.225 638.554C438.575 639.828 439.199 641.01 440.053 642.019C440.907 643.027 441.97 643.837 443.169 644.393C444.368 644.949 445.674 645.237 446.995 645.237C448.317 645.237 449.622 644.949 450.821 644.393C452.02 643.837 453.084 643.027 453.937 642.019C454.791 641.01 455.415 639.828 455.766 638.554C456.116 637.279 456.185 635.944 455.967 634.641V605.915C455.997 604.638 455.758 603.369 455.265 602.19C454.772 601.012 454.037 599.95 453.106 599.075C452.176 598.2 451.072 597.53 449.865 597.11C448.659 596.69 447.378 596.529 446.105 596.636C445.802 596.621 445.508 596.621 445.205 596.636ZM560.108 596.636C558.008 597.087 556.136 598.265 554.822 599.963C553.507 601.661 552.836 603.77 552.927 605.915V634.641C552.713 635.942 552.786 637.275 553.139 638.546C553.492 639.817 554.117 640.996 554.971 642.001C555.825 643.006 556.887 643.814 558.084 644.367C559.281 644.921 560.584 645.208 561.903 645.208C563.222 645.208 564.526 644.921 565.723 644.367C566.92 643.814 567.982 643.006 568.836 642.001C569.69 640.996 570.315 639.817 570.668 638.546C571.021 637.275 571.094 635.942 570.88 634.641V605.915C570.911 604.636 570.671 603.365 570.177 602.185C569.683 601.005 568.945 599.943 568.013 599.067C567.08 598.192 565.974 597.523 564.765 597.104C563.556 596.685 562.273 596.526 560.999 596.636C560.702 596.622 560.405 596.622 560.108 596.636Z" fill="black"/>
<path d="M318.231 804.209L307.131 840.88C306.917 841.577 306.403 842.151 305.703 842.475C305.002 842.8 304.172 842.848 303.395 842.61L303.313 842.585C302.537 842.347 301.876 841.841 301.478 841.18C301.08 840.518 300.977 839.755 301.19 839.058L312.53 802.086C313.54 796.734 319.906 792.874 327.662 793.232C336.164 793.619 343.118 798.93 343.189 805.091C339.798 812.261 332.839 810.983 330.607 810.88C325.961 810.666 320.354 807.735 318.231 804.209Z" fill="black"/>
<path d="M682.292 145.621L661.161 177.582C660.757 178.189 660.1 178.592 659.336 178.702C658.572 178.813 657.763 178.621 657.087 178.171L657.015 178.123C656.339 177.672 655.851 176.999 655.659 176.251C655.467 175.504 655.586 174.743 655.99 174.136L677.437 141.956C679.937 137.117 687.141 135.241 694.47 137.803C702.506 140.607 707.649 147.686 705.954 153.61C700.652 159.51 694.35 156.293 692.241 155.556C687.851 154.021 683.317 149.608 682.292 145.621Z" fill="black"/>
<path d="M45.5876 353.617L8.31674 344.735C7.60807 344.563 7.00442 344.085 6.63858 343.405C6.27274 342.725 6.17468 341.899 6.36598 341.11L6.38617 341.026C6.57746 340.236 7.04244 339.547 7.67881 339.11C8.31518 338.673 9.07082 338.524 9.77949 338.695L47.3644 347.799C52.7678 348.487 57.0017 354.61 57.1101 362.373C57.2327 370.883 52.3485 378.142 46.2023 378.583C38.842 375.627 39.7009 368.604 39.6699 366.37C39.6052 361.72 42.1943 355.947 45.5876 353.617Z" fill="black"/>
<path d="M282.526 58.5544L263.097 25.5309C262.73 24.9011 262.657 24.1344 262.893 23.3995C263.13 22.6646 263.657 22.0217 264.359 21.6122L264.433 21.569C265.135 21.1595 265.954 21.017 266.71 21.1728C267.466 21.3286 268.097 21.77 268.465 22.3998L287.951 55.803C291.2 60.1748 289.721 67.4707 284.2 72.929C278.15 78.9154 269.532 80.426 264.954 76.3008C261.984 68.9465 267.642 64.6982 269.231 63.1273C272.538 59.8579 278.494 57.7235 282.526 58.5544Z" fill="black"/>
<path d="M692.053 727.089L714.432 758.189C714.856 758.782 715 759.539 714.832 760.292C714.664 761.046 714.198 761.735 713.536 762.207L713.467 762.257C712.805 762.729 712.003 762.946 711.235 762.86C710.468 762.775 709.799 762.393 709.375 761.8L686.903 730.328C683.266 726.273 684.069 718.872 689.065 712.93C694.54 706.413 702.983 704.117 707.92 707.804C711.553 714.854 706.309 719.605 704.871 721.315C701.878 724.874 696.144 727.547 692.053 727.089Z" fill="black"/>
<path d="M824.459 655.317L790.559 637.462C789.915 637.12 789.449 636.507 789.263 635.757C789.078 635.008 789.188 634.184 789.569 633.466L789.609 633.39C789.99 632.673 790.612 632.121 791.337 631.855C792.062 631.59 792.831 631.633 793.475 631.975L827.624 650.123C832.687 652.13 835.269 659.112 833.447 666.659C831.454 674.933 824.92 680.754 818.857 679.655C812.461 674.965 815.036 668.375 815.56 666.203C816.652 661.682 820.593 656.733 824.459 655.317Z" fill="black"/>
<path d="M385.29 57.01L395.956 95.2734C393.749 94.8101 390.806 93.6148 387.058 94.9346C382.248 96.6281 378.3 98.962 377.17 103.682C375.544 110.48 386.301 113.825 393.523 111.812C400.745 109.799 405.126 102.9 403.312 96.395L395.108 66.9616L403.405 72.5679C403.647 72.7313 403.805 72.9922 403.839 73.2822L405.024 83.5825L405.398 84.9267C405.688 85.9673 407.194 85.8725 407.351 84.8037L409.046 73.2855C409.079 73.0561 409.032 72.8221 408.913 72.6236L402.548 62.0682L395.816 56.266C395.672 56.142 395.496 56.0616 395.308 56.034L392.712 55.6538C391.607 55.4919 390.48 55.5632 389.405 55.8631L385.29 57.01Z" fill="black"/>
<path d="M886.158 371.648L850.372 388.889C850.439 386.634 851.097 383.527 849.138 380.07C846.623 375.633 843.63 372.158 838.785 371.878C831.807 371.474 830.41 382.653 833.664 389.407C836.918 396.162 844.481 399.258 850.564 396.327L878.092 383.065L874.035 392.22C873.917 392.487 873.688 392.689 873.408 392.773L863.478 395.754L862.221 396.36C861.248 396.829 861.606 398.294 862.686 398.26L874.322 397.899C874.554 397.892 874.776 397.804 874.951 397.651L884.219 389.527L888.745 381.877C888.841 381.714 888.889 381.526 888.883 381.336L888.8 378.714C888.765 377.598 888.496 376.501 888.012 375.495L886.158 371.648Z" fill="black"/>
<path d="M792.261 155.972L765.524 185.349C764.743 183.233 764.191 180.105 761.08 177.632C757.088 174.459 753.013 172.356 748.414 173.908C741.792 176.145 744.678 187.035 750.223 192.081C755.768 197.127 763.94 197.169 768.485 192.175L789.052 169.577L788.715 179.585C788.705 179.877 788.568 180.15 788.34 180.332L780.247 186.813L779.307 187.845C778.58 188.644 779.461 189.868 780.45 189.433L791.106 184.744C791.318 184.651 791.491 184.487 791.596 184.28L797.152 173.278L798.487 164.491C798.515 164.303 798.49 164.111 798.413 163.937L797.355 161.537C796.905 160.515 796.245 159.598 795.419 158.846L792.261 155.972Z" fill="black"/>
<path d="M644.117 63.2907L621.688 108.619C620.33 106.35 617.905 104.136 614.744 102.571C608.705 99.5833 602.366 100.08 600.58 103.688C598.795 107.297 602.243 112.643 608.282 115.631C614.321 118.62 620.663 118.117 622.446 114.514L638.969 81.1205L675.727 87.8126L662.238 115.076C660.873 112.804 658.453 110.595 655.289 109.03C649.25 106.041 642.909 106.541 641.122 110.152C639.338 113.758 642.788 119.101 648.827 122.09C654.866 125.078 661.206 124.578 662.991 120.973L687.615 71.2065L644.117 63.2907Z" fill="black"/>
<path d="M92.2939 160.387L126.333 182.256C124.408 183.134 122.432 184.865 120.907 187.239C117.993 191.774 117.823 196.858 120.533 198.599C123.243 200.339 127.8 198.075 130.714 193.539C133.628 189.004 133.793 183.918 131.088 182.179L106.01 166.068L114.605 137.441L135.078 150.594C133.151 151.476 131.179 153.204 129.653 155.58C126.739 160.115 126.571 165.2 129.283 166.942C131.991 168.682 136.546 166.416 139.46 161.881C142.374 157.345 142.541 152.26 139.834 150.521L102.462 126.51L92.2939 160.387Z" fill="black"/>
<path d="M501.656 23.9204L492.218 73.6053C490.3 71.7843 487.37 70.302 483.905 69.6437C477.285 68.3862 471.312 70.5662 470.561 74.5215C469.81 78.4768 474.566 82.7015 481.186 83.959C487.805 85.2165 493.78 83.0303 494.53 79.0813L501.483 42.4776L538.689 39.0576L533.012 68.941C531.088 67.1188 528.164 65.6408 524.695 64.982C518.076 63.7245 512.102 65.9075 511.35 69.866C510.599 73.8181 515.356 78.0398 521.976 79.2973C528.596 80.5548 534.569 78.3717 535.32 74.4195L545.683 19.8701L501.656 23.9204Z" fill="black"/>
<path d="M82.7111 745.893L131.908 734.174C131.031 736.67 130.878 739.95 131.695 743.38C133.256 749.935 137.69 754.493 141.606 753.56C145.523 752.627 147.431 746.559 145.87 740.004C144.308 733.449 139.869 728.893 135.959 729.824L99.7144 738.458L81.3693 705.909L110.959 698.861C110.084 701.362 109.932 704.635 110.75 708.069C112.311 714.624 116.748 719.181 120.667 718.247C124.581 717.315 126.486 711.247 124.925 704.693C123.363 698.138 118.927 693.581 115.014 694.513L60.9999 707.379L82.7111 745.893Z" fill="black"/>
<path d="M598.83 844.014L584.679 795.461C587.215 796.213 590.498 796.203 593.884 795.216C600.353 793.331 604.685 788.676 603.559 784.811C602.432 780.946 596.276 779.342 589.807 781.227C583.338 783.112 579.008 787.773 580.133 791.632L590.558 827.402L558.962 847.343L550.451 818.141C552.993 818.89 556.269 818.879 559.658 817.892C566.127 816.006 570.458 811.349 569.331 807.48C568.205 803.618 562.05 802.017 555.581 803.902C549.112 805.788 544.781 810.445 545.907 814.308L561.444 867.614L598.83 844.014Z" fill="black"/>
<circle cx="457" cy="497" r="399" stroke="black" stroke-width="2"/>
<circle cx="457" cy="425" r="399" stroke="black" stroke-width="2"/>
<circle cx="457" cy="488" r="424" stroke="black" stroke-width="2"/>
<circle cx="457" cy="400" r="399" stroke="black" stroke-width="2"/>
<circle cx="432" cy="425" r="424" stroke="black" stroke-width="2"/>
<defs>
<clipPath id="clip0_5_2">
<rect width="705" height="251" fill="white" transform="translate(95 269)"/>
</clipPath>
</defs>
</svg>
