<svg width="895" height="913" viewBox="0 0 895 913" fill="none" xmlns="http://www.w3.org/2000/svg">
<g clip-path="url(#clip0_5_2)">
<path d="M143.469 278.75C145.578 278.828 147.375 279.609 148.859 281.094C150.344 282.5 151.125 284.258 151.203 286.367V343.789C150.734 348.477 148.156 351.016 143.469 351.406C141.281 351.406 139.367 350.703 137.727 349.297C136.164 347.812 135.383 345.977 135.383 343.789V286.367C135.461 284.18 136.281 282.383 137.844 280.977C139.406 279.492 141.281 278.75 143.469 278.75ZM163.508 299.375C168.742 295.859 175.812 292.305 184.719 288.711L203.938 280.508C204.797 280.117 205.734 279.883 206.75 279.805C208.938 279.648 210.812 280.312 212.375 281.797C213.938 283.203 214.719 285.039 214.719 287.305C214.719 289.883 214.172 291.797 213.078 293.047C212.062 294.219 210.734 295.195 209.094 295.977L192.688 302.188C189.484 303.438 186.438 304.688 183.547 305.938C180.734 307.109 178.156 308.477 175.812 310.039C173.469 311.445 172.219 313.047 172.062 314.844C172.219 316.562 173.469 318.164 175.812 319.648C178.156 321.211 180.734 322.617 183.547 323.867C186.438 325.039 189.484 326.25 192.688 327.5L210.969 334.18C212.609 334.961 213.938 335.977 214.953 337.227C216.047 338.398 216.594 340.273 216.594 342.852C216.594 345.117 215.812 346.992 214.25 348.477C212.688 349.883 210.812 350.508 208.625 350.352C207.609 350.273 206.672 350.039 205.812 349.648L184.719 340.977C175.812 337.383 168.703 333.828 163.391 330.312C158.156 326.719 155.5 321.562 155.422 314.844C155.5 308.125 158.195 302.969 163.508 299.375ZM252.453 349.766C245.578 349.531 240.383 347.93 236.867 344.961C233.352 341.914 230.812 338.516 229.25 334.766C227.688 330.938 226.906 327.07 226.906 323.164C226.906 319.102 227.648 315.195 229.133 311.445C230.695 307.617 233.234 304.219 236.75 301.25C240.344 298.203 244.875 296.641 250.344 296.562H294.875C297.062 296.562 298.898 297.305 300.383 298.789C301.945 300.195 302.727 301.914 302.727 303.945C302.727 306.055 301.945 307.852 300.383 309.336C298.898 310.742 297.062 311.445 294.875 311.445H251.047C249.328 311.445 247.805 312.031 246.477 313.203C245.227 314.375 244.289 315.898 243.664 317.773C243.117 319.648 242.844 321.484 242.844 323.281C242.844 325.234 243.117 327.148 243.664 329.023C244.289 330.898 245.227 332.422 246.477 333.594C247.805 334.688 249.328 335.273 251.047 335.352H294.875C297.062 335.352 298.898 336.055 300.383 337.461C301.945 338.867 302.727 340.547 302.727 342.5C302.727 344.531 301.945 346.25 300.383 347.656C298.898 349.062 297.062 349.766 294.875 349.766H252.453ZM301.32 322.93C301.32 324.414 300.656 325.703 299.328 326.797C298.156 327.812 296.672 328.32 294.875 328.32H256.555C254.758 328.32 253.234 327.812 251.984 326.797C250.734 325.703 250.109 324.414 250.109 322.93C250.109 321.523 250.734 320.273 251.984 319.18C253.234 318.164 254.758 317.656 256.555 317.656H294.875C296.672 317.656 298.195 318.203 299.445 319.297C300.695 320.312 301.32 321.523 301.32 322.93ZM324.055 295.156C326.242 295.156 328.117 295.898 329.68 297.383C331.242 298.789 332.062 300.586 332.141 302.773V314.609C332.062 317.812 332.258 320.781 332.727 323.516C333.273 326.172 334.523 328.555 336.477 330.664C338.43 332.773 340.891 333.906 343.859 334.062H375.148V303.008C375.148 300.82 375.93 299.023 377.492 297.617C379.133 296.133 381.047 295.391 383.234 295.391C387.922 295.781 390.5 298.32 390.969 303.008V341.211C390.969 347.461 390.109 353.359 388.391 358.906C386.828 363.828 384.25 367.969 380.656 371.328C377.141 374.766 372.648 376.641 367.18 376.953H326.633C324.523 376.875 322.727 376.094 321.242 374.609C319.836 373.203 319.094 371.445 319.016 369.336C319.016 367.148 319.719 365.273 321.125 363.711C322.609 362.148 324.445 361.328 326.633 361.25H363.195C366.164 361.094 368.625 359.961 370.578 357.852C372.531 355.742 373.781 353.281 374.328 350.469C374.406 350.234 374.445 350 374.445 349.766H339.875C334.406 349.453 329.875 347.617 326.281 344.258C322.766 340.82 320.227 336.641 318.664 331.719C317.18 326.797 316.398 321.562 316.32 316.016V302.773C316.398 300.664 317.18 298.906 318.664 297.5C320.148 296.016 321.945 295.234 324.055 295.156ZM480.734 303.359C480.734 305.312 479.953 306.953 478.391 308.281C476.906 309.531 475.07 310.156 472.883 310.156H423.312C422.297 310.156 421.477 310.352 420.852 310.742C420.227 311.133 419.758 311.562 419.445 312.031C419.133 312.422 418.977 312.773 418.977 313.086C418.977 313.477 419.133 313.906 419.445 314.375C419.758 314.766 420.227 315.156 420.852 315.547C421.477 315.859 422.297 316.055 423.312 316.133H461.633C466.555 316.211 470.617 317.188 473.82 319.062C477.023 320.859 479.289 323.008 480.617 325.508C482.023 327.93 482.727 330.391 482.727 332.891C482.727 335.312 482.023 337.773 480.617 340.273C479.211 342.695 476.906 344.844 473.703 346.719C470.578 348.516 466.555 349.414 461.633 349.414C460.773 349.492 460.148 349.531 459.758 349.531H414.289C412.102 349.531 410.227 348.906 408.664 347.656C407.18 346.328 406.438 344.727 406.438 342.852C406.438 340.898 407.219 339.258 408.781 337.93C410.266 336.68 412.102 336.055 414.289 336.055H462.57C463.742 336.133 464.68 335.977 465.383 335.586C466.164 335.195 466.75 334.766 467.141 334.297C467.531 333.828 467.727 333.359 467.727 332.891C467.727 332.656 467.531 332.266 467.141 331.719C466.75 331.094 466.164 330.625 465.383 330.312C464.68 329.922 463.742 329.688 462.57 329.609H424.133C419.602 329.531 415.852 328.594 412.883 326.797C409.914 324.922 407.805 322.773 406.555 320.352C405.305 317.93 404.68 315.508 404.68 313.086C404.68 310.664 405.305 308.281 406.555 305.938C407.883 303.516 409.992 301.445 412.883 299.727C415.852 297.93 419.602 296.953 424.133 296.797C424.914 296.719 425.5 296.68 425.891 296.68H472.883C475.07 296.68 476.906 297.344 478.391 298.672C479.953 299.922 480.734 301.484 480.734 303.359Z" fill="black"/>
<path d="M161.75 462.602C161.75 460.414 162.492 458.578 163.977 457.094C165.539 455.531 167.414 454.75 169.602 454.75H187.531L184.484 446.078C183.234 442.875 181.984 439.867 180.734 437.055C179.562 434.164 178.195 431.547 176.633 429.203C175.227 426.859 173.625 425.609 171.828 425.453C169.953 425.609 168.273 426.859 166.789 429.203C165.305 431.547 163.938 434.164 162.688 437.055C161.516 439.867 160.305 442.875 159.055 446.078L147.922 476.547C147.141 478.188 146.125 479.555 144.875 480.648C143.703 481.664 141.906 482.172 139.484 482.172C137.219 482.172 135.344 481.391 133.859 479.828C132.453 478.266 131.828 476.391 131.984 474.203C132.062 473.188 132.297 472.25 132.688 471.391L145.578 438.109C149.172 429.359 152.766 422.289 156.359 416.898C159.875 411.586 165.031 408.891 171.828 408.812C178.547 408.891 183.664 411.586 187.18 416.898C190.773 422.133 194.367 429.203 197.961 438.109L210.852 471.391C211.242 472.25 211.477 473.188 211.555 474.203C211.711 476.391 211.047 478.266 209.562 479.828C208.156 481.391 206.32 482.172 204.055 482.172C201.477 482.172 199.562 481.664 198.312 480.648C197.141 479.555 196.164 478.188 195.383 476.547L193.156 470.453H169.602C167.414 470.453 165.578 469.672 164.094 468.109C162.531 466.625 161.75 464.789 161.75 462.602ZM260.656 425.805C264.719 425.805 268.703 426.273 272.609 427.211C276.594 428.148 280.383 429.555 283.977 431.43C287.57 433.227 290.734 435.648 293.469 438.695C296.281 441.742 297.805 445.375 298.039 449.594V454.516V474.555C297.57 479.242 294.992 481.781 290.305 482.172C288.117 482.172 286.203 481.469 284.562 480.062C283 478.578 282.219 476.742 282.219 474.555V469.398V453.227C282.062 450.805 281.125 448.812 279.406 447.25C277.766 445.609 275.891 444.32 273.781 443.383C271.75 442.445 269.602 441.742 267.336 441.273C265.148 440.805 262.922 440.57 260.656 440.57C258.391 440.57 256.125 440.805 253.859 441.273C251.672 441.742 249.523 442.445 247.414 443.383C245.383 444.32 243.508 445.609 241.789 447.25C240.148 448.812 239.25 450.805 239.094 453.227V469.398V474.555C238.703 479.242 236.164 481.781 231.477 482.172C229.289 482.172 227.375 481.469 225.734 480.062C224.172 478.578 223.391 476.742 223.391 474.555V454.516V449.594C223.625 445.375 225.109 441.742 227.844 438.695C230.578 435.648 233.742 433.227 237.336 431.43C240.93 429.555 244.68 428.148 248.586 427.211C252.57 426.273 256.594 425.805 260.656 425.805ZM321.008 426.391C323.117 426.469 324.914 427.25 326.398 428.734C327.883 430.141 328.664 431.898 328.742 434.008V474.555C328.273 479.242 325.695 481.781 321.008 482.172C318.82 482.172 316.906 481.469 315.266 480.062C313.703 478.578 312.922 476.742 312.922 474.555V434.008C313 431.82 313.82 430.023 315.383 428.617C316.945 427.133 318.82 426.391 321.008 426.391ZM311.164 411.156C311.164 408.969 312.102 407.094 313.977 405.531C315.852 403.969 318.117 403.188 320.773 403.188C323.43 403.188 325.695 403.969 327.57 405.531C329.445 407.094 330.383 408.969 330.383 411.156C330.383 413.422 329.445 415.336 327.57 416.898C325.695 418.461 323.43 419.242 320.773 419.242C318.117 419.242 315.852 418.461 313.977 416.898C312.102 415.336 311.164 413.422 311.164 411.156ZM367.883 425.805C370.617 425.805 373.273 426.273 375.852 427.211C378.508 428.148 381.047 429.516 383.469 431.312C383.859 431.703 384.289 432.094 384.758 432.484C385.148 432.094 385.578 431.703 386.047 431.312C388.469 429.516 390.969 428.148 393.547 427.211C396.203 426.273 398.859 425.805 401.516 425.805C404.25 425.805 406.906 426.273 409.484 427.211C412.141 428.148 414.641 429.555 416.984 431.43C419.406 433.227 421.516 435.648 423.312 438.695C425.188 441.742 426.125 445.375 426.125 449.594V474.555C425.656 479.242 423.078 481.781 418.391 482.172C416.203 482.172 414.289 481.469 412.648 480.062C411.086 478.578 410.305 476.742 410.305 474.555V450.531C410.305 448.656 409.953 447.094 409.25 445.844C408.547 444.516 407.766 443.5 406.906 442.797C406.047 442.016 405.148 441.469 404.211 441.156C403.273 440.766 402.336 440.57 401.398 440.57C400.461 440.57 399.523 440.766 398.586 441.156C397.727 441.469 396.867 442.016 396.008 442.797C395.148 443.5 394.367 444.516 393.664 445.844C392.961 447.094 392.57 448.656 392.492 450.531V474.555C392.023 479.242 389.445 481.781 384.758 482.172C382.57 482.172 380.656 481.469 379.016 480.062C377.453 478.578 376.672 476.742 376.672 474.555V450.531C376.672 448.656 376.32 447.094 375.617 445.844C374.914 444.516 374.133 443.5 373.273 442.797C372.414 442.016 371.516 441.469 370.578 441.156C369.641 440.766 368.703 440.57 367.766 440.57C366.828 440.57 365.891 440.766 364.953 441.156C364.094 441.469 363.234 442.016 362.375 442.797C361.516 443.5 360.734 444.516 360.031 445.844C359.328 447.094 358.938 448.656 358.859 450.531V474.555C358.469 479.242 355.93 481.781 351.242 482.172C349.055 482.172 347.141 481.469 345.5 480.062C343.938 478.578 343.156 476.742 343.156 474.555V449.594C343.312 445.375 344.289 441.742 346.086 438.695C347.883 435.648 349.992 433.227 352.414 431.43C354.836 429.555 357.336 428.148 359.914 427.211C362.57 426.273 365.227 425.805 367.883 425.805ZM506.164 474.555V446.312C506.164 444.359 505.148 443.344 503.117 443.266H462.102C460.617 443.344 459.328 444.008 458.234 445.258C457.141 446.43 456.32 447.836 455.773 449.477C455.305 451.039 455.07 452.641 455.07 454.281C455.07 455.844 455.305 457.445 455.773 459.086C456.32 460.648 457.141 462.055 458.234 463.305C459.328 464.477 460.617 465.062 462.102 465.062H492.102C494.289 465.062 496.125 465.844 497.609 467.406C499.172 468.891 499.953 470.727 499.953 472.914C499.953 475.102 499.172 476.938 497.609 478.422C496.125 479.984 494.289 480.766 492.102 480.766H462.57C457.102 480.688 452.57 479.164 448.977 476.195C445.461 473.148 442.922 469.75 441.359 466C439.875 462.172 439.133 458.227 439.133 454.164C439.133 450.258 439.914 446.43 441.477 442.68C443.039 438.852 445.578 435.453 449.094 432.484C452.609 429.438 457.805 427.797 464.68 427.562H513.898C516.086 427.562 517.961 428.305 519.523 429.789C521.086 431.195 521.906 432.992 521.984 435.18V474.555C521.984 476.742 521.164 478.578 519.523 480.062C517.961 481.469 516.086 482.172 513.898 482.172C509.211 481.781 506.633 479.242 506.164 474.555ZM560.891 480.766C554.016 480.531 548.82 478.93 545.305 475.961C541.789 472.914 539.25 469.516 537.688 465.766C536.125 461.938 535.344 458.07 535.344 454.164C535.344 450.102 536.086 446.195 537.57 442.445C539.133 438.617 541.672 435.219 545.188 432.25C548.781 429.203 553.312 427.641 558.781 427.562H603.312C605.5 427.562 607.336 428.344 608.82 429.906C610.383 431.391 611.164 433.227 611.164 435.414C611.164 437.602 610.383 439.477 608.82 441.039C607.336 442.523 605.5 443.266 603.312 443.266H558.312C556.828 443.266 555.539 443.891 554.445 445.141C553.352 446.312 552.531 447.719 551.984 449.359C551.516 450.922 551.281 452.484 551.281 454.047C551.281 455.688 551.516 457.328 551.984 458.969C552.531 460.531 553.352 461.938 554.445 463.188C555.539 464.359 556.828 464.984 558.312 465.062H603.312C605.5 465.062 607.336 465.844 608.82 467.406C610.383 468.891 611.164 470.727 611.164 472.914C611.164 475.102 610.383 476.938 608.82 478.422C607.336 479.984 605.5 480.766 603.312 480.766H560.891ZM631.555 426.391C633.664 426.469 635.461 427.25 636.945 428.734C638.43 430.141 639.211 431.898 639.289 434.008V474.555C638.82 479.242 636.242 481.781 631.555 482.172C629.367 482.172 627.453 481.469 625.812 480.062C624.25 478.578 623.469 476.742 623.469 474.555V434.008C623.547 431.82 624.367 430.023 625.93 428.617C627.492 427.133 629.367 426.391 631.555 426.391ZM621.711 411.156C621.711 408.969 622.648 407.094 624.523 405.531C626.398 403.969 628.664 403.188 631.32 403.188C633.977 403.188 636.242 403.969 638.117 405.531C639.992 407.094 640.93 408.969 640.93 411.156C640.93 413.422 639.992 415.336 638.117 416.898C636.242 418.461 633.977 419.242 631.32 419.242C628.664 419.242 626.398 418.461 624.523 416.898C622.648 415.336 621.711 413.422 621.711 411.156ZM677.844 480.766C670.969 480.531 665.773 478.93 662.258 475.961C658.742 472.914 656.203 469.516 654.641 465.766C653.078 461.938 652.297 458.07 652.297 454.164C652.297 450.102 653.039 446.195 654.523 442.445C656.086 438.617 658.625 435.219 662.141 432.25C665.734 429.203 670.266 427.641 675.734 427.562H713.703C719.172 427.641 723.664 429.203 727.18 432.25C730.773 435.219 733.312 438.617 734.797 442.445C736.359 446.195 737.141 450.102 737.141 454.164C737.141 458.07 736.359 461.938 734.797 465.766C733.234 469.516 730.695 472.914 727.18 475.961C723.664 478.93 718.469 480.531 711.594 480.766H677.844ZM675.266 443.266C673.781 443.266 672.492 443.891 671.398 445.141C670.305 446.312 669.484 447.719 668.938 449.359C668.469 450.922 668.234 452.484 668.234 454.047C668.234 455.688 668.469 457.328 668.938 458.969C669.484 460.531 670.305 461.938 671.398 463.188C672.492 464.359 673.781 464.984 675.266 465.062H714.172C715.656 464.984 716.945 464.359 718.039 463.188C719.133 461.938 719.914 460.531 720.383 458.969C720.93 457.328 721.203 455.688 721.203 454.047C721.203 452.484 720.93 450.922 720.383 449.359C719.914 447.719 719.133 446.312 718.039 445.141C716.945 443.891 715.656 443.266 714.172 443.266H675.266ZM788 425.805C792.062 425.805 796.047 426.273 799.953 427.211C803.938 428.148 807.727 429.555 811.32 431.43C814.914 433.227 818.078 435.648 820.812 438.695C823.625 441.742 825.148 445.375 825.383 449.594V454.516V474.555C824.914 479.242 822.336 481.781 817.648 482.172C815.461 482.172 813.547 481.469 811.906 480.062C810.344 478.578 809.562 476.742 809.562 474.555V469.398V453.227C809.406 450.805 808.469 448.812 806.75 447.25C805.109 445.609 803.234 444.32 801.125 443.383C799.094 442.445 796.945 441.742 794.68 441.273C792.492 440.805 790.266 440.57 788 440.57C785.734 440.57 783.469 440.805 781.203 441.273C779.016 441.742 776.867 442.445 774.758 443.383C772.727 444.32 770.852 445.609 769.133 447.25C767.492 448.812 766.594 450.805 766.438 453.227V469.398V474.555C766.047 479.242 763.508 481.781 758.82 482.172C756.633 482.172 754.719 481.469 753.078 480.062C751.516 478.578 750.734 476.742 750.734 474.555V454.516V449.594C750.969 445.375 752.453 441.742 755.188 438.695C757.922 435.648 761.086 433.227 764.68 431.43C768.273 429.555 772.023 428.148 775.93 427.211C779.914 426.273 783.938 425.805 788 425.805Z" fill="black"/>
</g>
<path d="M502.656 520.034C500.557 520.484 498.684 521.663 497.37 523.361C496.055 525.059 495.384 527.167 495.475 529.313V711.243C495.262 712.545 495.334 713.877 495.687 715.148C496.04 716.419 496.665 717.598 497.519 718.603C498.373 719.608 499.435 720.416 500.632 720.97C501.829 721.524 503.133 721.81 504.452 721.81C505.771 721.81 507.074 721.524 508.271 720.97C509.468 720.416 510.531 719.608 511.384 718.603C512.238 717.598 512.864 716.419 513.217 715.148C513.569 713.877 513.642 712.545 513.429 711.243V529.313C513.459 528.034 513.219 526.763 512.725 525.583C512.231 524.403 511.494 523.341 510.561 522.465C509.629 521.589 508.522 520.92 507.313 520.502C506.105 520.083 504.821 519.923 503.547 520.034C503.25 520.02 502.953 520.02 502.656 520.034ZM387.753 529.609C385.653 530.06 383.781 531.238 382.466 532.936C381.152 534.634 380.481 536.743 380.571 538.888V701.668C380.358 702.969 380.431 704.302 380.783 705.573C381.136 706.844 381.762 708.023 382.616 709.028C383.469 710.033 384.532 710.841 385.729 711.394C386.926 711.948 388.229 712.235 389.548 712.235C390.867 712.235 392.17 711.948 393.368 711.394C394.565 710.841 395.627 710.033 396.481 709.028C397.335 708.023 397.96 706.844 398.313 705.573C398.666 704.302 398.738 702.969 398.525 701.668V538.888C398.555 537.609 398.316 536.338 397.822 535.158C397.328 533.978 396.59 532.916 395.658 532.04C394.725 531.165 393.618 530.496 392.41 530.077C391.201 529.658 389.918 529.499 388.643 529.609C388.347 529.595 388.05 529.595 387.753 529.609ZM473.93 558.335C471.831 558.785 469.958 559.964 468.644 561.662C467.33 563.36 466.658 565.468 466.749 567.614V672.942C466.531 674.245 466.6 675.581 466.95 676.855C467.301 678.129 467.925 679.311 468.779 680.32C469.633 681.328 470.696 682.139 471.895 682.694C473.094 683.25 474.4 683.538 475.721 683.538C477.043 683.538 478.348 683.25 479.547 682.694C480.746 682.139 481.809 681.328 482.663 680.32C483.517 679.311 484.141 678.129 484.492 676.855C484.842 675.581 484.911 674.245 484.693 672.942V567.614C484.723 566.337 484.484 565.068 483.991 563.889C483.498 562.711 482.763 561.649 481.832 560.774C480.902 559.899 479.797 559.229 478.591 558.809C477.385 558.389 476.103 558.227 474.831 558.335C474.528 558.32 474.234 558.32 473.93 558.335ZM359.027 567.911C356.927 568.361 355.055 569.539 353.74 571.237C352.426 572.935 351.755 575.044 351.846 577.189V663.367C351.628 664.67 351.696 666.005 352.047 667.279C352.398 668.554 353.021 669.736 353.875 670.744C354.729 671.753 355.793 672.563 356.992 673.119C358.191 673.675 359.496 673.963 360.818 673.963C362.139 673.963 363.445 673.675 364.644 673.119C365.842 672.563 366.906 671.753 367.76 670.744C368.614 669.736 369.238 668.554 369.588 667.279C369.939 666.005 370.008 664.67 369.79 663.367V577.189C369.82 575.912 369.581 574.643 369.088 573.464C368.595 572.286 367.859 571.225 366.929 570.349C365.998 569.474 364.894 568.804 363.688 568.384C362.481 567.964 361.2 567.803 359.927 567.911C359.624 567.895 359.33 567.895 359.027 567.911ZM416.479 577.486C414.379 577.936 412.507 579.114 411.192 580.813C409.878 582.511 409.207 584.619 409.297 586.764V653.791C409.079 655.095 409.148 656.43 409.499 657.704C409.849 658.978 410.473 660.161 411.327 661.169C412.181 662.178 413.244 662.988 414.443 663.544C415.642 664.1 416.948 664.388 418.269 664.388C419.591 664.388 420.896 664.1 422.095 663.544C423.294 662.988 424.358 662.178 425.212 661.169C426.065 660.161 426.689 658.978 427.04 657.704C427.391 656.43 427.459 655.095 427.241 653.791V586.764C427.272 585.487 427.032 584.218 426.539 583.04C426.046 581.861 425.311 580.8 424.38 579.924C423.45 579.049 422.346 578.38 421.139 577.959C419.933 577.539 418.652 577.378 417.379 577.486C417.076 577.471 416.782 577.471 416.479 577.486ZM531.382 577.486C529.283 577.936 527.41 579.114 526.096 580.813C524.781 582.511 524.11 584.619 524.201 586.764V653.791C523.988 655.093 524.06 656.425 524.413 657.696C524.766 658.967 525.391 660.146 526.245 661.151C527.099 662.157 528.161 662.964 529.358 663.518C530.555 664.072 531.859 664.359 533.178 664.359C534.497 664.359 535.8 664.072 536.997 663.518C538.194 662.964 539.256 662.157 540.11 661.151C540.964 660.146 541.589 658.967 541.942 657.696C542.295 656.425 542.368 655.093 542.154 653.791V586.764C542.185 585.486 541.945 584.215 541.451 583.035C540.957 581.855 540.22 580.792 539.287 579.917C538.355 579.041 537.248 578.372 536.039 577.953C534.831 577.534 533.547 577.375 532.273 577.486C531.976 577.471 531.679 577.471 531.382 577.486ZM330.301 596.636C328.202 597.087 326.329 598.265 325.015 599.963C323.7 601.661 323.029 603.77 323.12 605.915V634.641C322.906 635.942 322.979 637.275 323.332 638.546C323.685 639.817 324.31 640.996 325.164 642.001C326.018 643.006 327.08 643.814 328.277 644.367C329.474 644.921 330.778 645.208 332.097 645.208C333.416 645.208 334.719 644.921 335.916 644.367C337.113 643.814 338.175 643.006 339.029 642.001C339.883 640.996 340.508 639.817 340.861 638.546C341.214 637.275 341.287 635.942 341.073 634.641V605.915C341.104 604.636 340.864 603.365 340.37 602.185C339.876 601.005 339.139 599.943 338.206 599.067C337.273 598.192 336.167 597.523 334.958 597.104C333.749 596.685 332.466 596.526 331.192 596.636C330.892 596.622 330.591 596.622 330.292 596.636H330.301ZM445.205 596.636C443.105 597.087 441.232 598.265 439.918 599.963C438.604 601.661 437.933 603.77 438.023 605.915V634.641C437.805 635.944 437.874 637.279 438.225 638.554C438.575 639.828 439.199 641.01 440.053 642.019C440.907 643.027 441.97 643.837 443.169 644.393C444.368 644.949 445.674 645.237 446.995 645.237C448.317 645.237 449.622 644.949 450.821 644.393C452.02 643.837 453.084 643.027 453.937 642.019C454.791 641.01 455.415 639.828 455.766 638.554C456.116 637.279 456.185 635.944 455.967 634.641V605.915C455.997 604.638 455.758 603.369 455.265 602.19C454.772 601.012 454.037 599.95 453.106 599.075C452.176 598.2 451.072 597.53 449.865 597.11C448.659 596.69 447.378 596.529 446.105 596.636C445.802 596.621 445.508 596.621 445.205 596.636ZM560.108 596.636C558.008 597.087 556.136 598.265 554.822 599.963C553.507 601.661 552.836 603.77 552.927 605.915V634.641C552.713 635.942 552.786 637.275 553.139 638.546C553.492 639.817 554.117 640.996 554.971 642.001C555.825 643.006 556.887 643.814 558.084 644.367C559.281 644.921 560.584 645.208 561.903 645.208C563.222 645.208 564.526 644.921 565.723 644.367C566.92 643.814 567.982 643.006 568.836 642.001C569.69 640.996 570.315 639.817 570.668 638.546C571.021 637.275 571.094 635.942 570.88 634.641V605.915C570.911 604.636 570.671 603.365 570.177 602.185C569.683 601.005 568.945 599.943 568.013 599.067C567.08 598.192 565.974 597.523 564.765 597.104C563.556 596.685 562.273 596.526 560.999 596.636C560.702 596.622 560.405 596.622 560.108 596.636Z" fill="black"/>
<path d="M318.231 804.209L307.131 840.88C306.917 841.577 306.403 842.151 305.703 842.475C305.002 842.8 304.172 842.848 303.395 842.61L303.313 842.585C302.537 842.347 301.876 841.841 301.478 841.18C301.08 840.518 300.977 839.755 301.19 839.058L312.53 802.086C313.54 796.734 319.906 792.874 327.662 793.232C336.164 793.619 343.118 798.93 343.189 805.091C339.798 812.261 332.839 810.983 330.607 810.88C325.961 810.666 320.354 807.735 318.231 804.209Z" fill="black"/>
<path d="M682.292 145.621L661.161 177.582C660.757 178.189 660.1 178.592 659.336 178.702C658.572 178.813 657.763 178.621 657.087 178.171L657.015 178.123C656.339 177.672 655.851 176.999 655.659 176.251C655.467 175.504 655.586 174.743 655.99 174.136L677.437 141.956C679.937 137.117 687.141 135.241 694.47 137.803C702.506 140.607 707.649 147.686 705.954 153.61C700.652 159.51 694.35 156.293 692.241 155.556C687.851 154.021 683.317 149.608 682.292 145.621Z" fill="black"/>
<path d="M45.5876 353.617L8.31674 344.735C7.60807 344.563 7.00442 344.085 6.63858 343.405C6.27274 342.725 6.17468 341.899 6.36598 341.11L6.38617 341.026C6.57746 340.236 7.04244 339.547 7.67881 339.11C8.31518 338.673 9.07082 338.524 9.77949 338.695L47.3644 347.799C52.7678 348.487 57.0017 354.61 57.1101 362.373C57.2327 370.883 52.3485 378.142 46.2023 378.583C38.842 375.627 39.7009 368.604 39.6699 366.37C39.6052 361.72 42.1943 355.947 45.5876 353.617Z" fill="black"/>
<path d="M282.526 58.5544L263.097 25.5309C262.73 24.9011 262.657 24.1344 262.893 23.3995C263.13 22.6646 263.657 22.0217 264.359 21.6122L264.433 21.569C265.135 21.1595 265.954 21.017 266.71 21.1728C267.466 21.3286 268.097 21.77 268.465 22.3998L287.951 55.803C291.2 60.1748 289.721 67.4707 284.2 72.929C278.15 78.9154 269.532 80.426 264.954 76.3008C261.984 68.9465 267.642 64.6982 269.231 63.1273C272.538 59.8579 278.494 57.7235 282.526 58.5544Z" fill="black"/>
<path d="M692.053 727.089L714.432 758.189C714.856 758.782 715 759.539 714.832 760.292C714.664 761.046 714.198 761.735 713.536 762.207L713.467 762.257C712.805 762.729 712.003 762.946 711.235 762.86C710.468 762.775 709.799 762.393 709.375 761.8L686.903 730.328C683.266 726.273 684.069 718.872 689.065 712.93C694.54 706.413 702.983 704.117 707.92 707.804C711.553 714.854 706.309 719.605 704.871 721.315C701.878 724.874 696.144 727.547 692.053 727.089Z" fill="black"/>
<path d="M824.459 655.317L790.559 637.462C789.915 637.12 789.449 636.507 789.263 635.757C789.078 635.008 789.188 634.184 789.569 633.466L789.609 633.39C789.99 632.673 790.612 632.121 791.337 631.855C792.062 631.59 792.831 631.633 793.475 631.975L827.624 650.123C832.687 652.13 835.269 659.112 833.447 666.659C831.454 674.933 824.92 680.754 818.857 679.655C812.461 674.965 815.036 668.375 815.56 666.203C816.652 661.682 820.593 656.733 824.459 655.317Z" fill="black"/>
<path d="M385.29 57.01L395.956 95.2734C393.749 94.8101 390.806 93.6148 387.058 94.9346C382.248 96.6281 378.3 98.962 377.17 103.682C375.544 110.48 386.301 113.825 393.523 111.812C400.745 109.799 405.126 102.9 403.312 96.395L395.108 66.9616L403.405 72.5679C403.647 72.7313 403.805 72.9922 403.839 73.2822L405.024 83.5825L405.398 84.9267C405.688 85.9673 407.194 85.8725 407.351 84.8037L409.046 73.2855C409.079 73.0561 409.032 72.8221 408.913 72.6236L402.548 62.0682L395.816 56.266C395.672 56.142 395.496 56.0616 395.308 56.034L392.712 55.6538C391.607 55.4919 390.48 55.5632 389.405 55.8631L385.29 57.01Z" fill="black"/>
<path d="M886.158 371.648L850.372 388.889C850.439 386.634 851.097 383.527 849.138 380.07C846.623 375.633 843.63 372.158 838.785 371.878C831.807 371.474 830.41 382.653 833.664 389.407C836.918 396.162 844.481 399.258 850.564 396.327L878.092 383.065L874.035 392.22C873.917 392.487 873.688 392.689 873.408 392.773L863.478 395.754L862.221 396.36C861.248 396.829 861.606 398.294 862.686 398.26L874.322 397.899C874.554 397.892 874.776 397.804 874.951 397.651L884.219 389.527L888.745 381.877C888.841 381.714 888.889 381.526 888.883 381.336L888.8 378.714C888.765 377.598 888.496 376.501 888.012 375.495L886.158 371.648Z" fill="black"/>
<path d="M792.261 155.972L765.524 185.349C764.743 183.233 764.191 180.105 761.08 177.632C757.088 174.459 753.013 172.356 748.414 173.908C741.792 176.145 744.678 187.035 750.223 192.081C755.768 197.127 763.94 197.169 768.485 192.175L789.052 169.577L788.715 179.585C788.705 179.877 788.568 180.15 788.34 180.332L780.247 186.813L779.307 187.845C778.58 188.644 779.461 189.868 780.45 189.433L791.106 184.744C791.318 184.651 791.491 184.487 791.596 184.28L797.152 173.278L798.487 164.491C798.515 164.303 798.49 164.111 798.413 163.937L797.355 161.537C796.905 160.515 796.245 159.598 795.419 158.846L792.261 155.972Z" fill="black"/>
<path d="M644.117 63.2907L621.688 108.619C620.33 106.35 617.905 104.136 614.744 102.571C608.705 99.5833 602.366 100.08 600.58 103.688C598.795 107.297 602.243 112.643 608.282 115.631C614.321 118.62 620.663 118.117 622.446 114.514L638.969 81.1205L675.727 87.8126L662.238 115.076C660.873 112.804 658.453 110.595 655.289 109.03C649.25 106.041 642.909 106.541 641.122 110.152C639.338 113.758 642.788 119.101 648.827 122.09C654.866 125.078 661.206 124.578 662.991 120.973L687.615 71.2065L644.117 63.2907Z" fill="black"/>
<path d="M92.2939 160.387L126.333 182.256C124.408 183.134 122.432 184.865 120.907 187.239C117.993 191.774 117.823 196.858 120.533 198.599C123.243 200.339 127.8 198.075 130.714 193.539C133.628 189.004 133.793 183.918 131.088 182.179L106.01 166.068L114.605 137.441L135.078 150.594C133.151 151.476 131.179 153.204 129.653 155.58C126.739 160.115 126.571 165.2 129.283 166.942C131.991 168.682 136.546 166.416 139.46 161.881C142.374 157.345 142.541 152.26 139.834 150.521L102.462 126.51L92.2939 160.387Z" fill="black"/>
<path d="M501.656 23.9204L492.218 73.6053C490.3 71.7843 487.37 70.302 483.905 69.6437C477.285 68.3862 471.312 70.5662 470.561 74.5215C469.81 78.4768 474.566 82.7015 481.186 83.959C487.805 85.2165 493.78 83.0303 494.53 79.0813L501.483 42.4776L538.689 39.0576L533.012 68.941C531.088 67.1188 528.164 65.6408 524.695 64.982C518.076 63.7245 512.102 65.9075 511.35 69.866C510.599 73.8181 515.356 78.0398 521.976 79.2973C528.596 80.5548 534.569 78.3717 535.32 74.4195L545.683 19.8701L501.656 23.9204Z" fill="black"/>
<path d="M82.7111 745.893L131.908 734.174C131.031 736.67 130.878 739.95 131.695 743.38C133.256 749.935 137.69 754.493 141.606 753.56C145.523 752.627 147.431 746.559 145.87 740.004C144.308 733.449 139.869 728.893 135.959 729.824L99.7144 738.458L81.3693 705.909L110.959 698.861C110.084 701.362 109.932 704.635 110.75 708.069C112.311 714.624 116.748 719.181 120.667 718.247C124.581 717.315 126.486 711.247 124.925 704.693C123.363 698.138 118.927 693.581 115.014 694.513L60.9999 707.379L82.7111 745.893Z" fill="black"/>
<path d="M598.83 844.014L584.679 795.461C587.215 796.213 590.498 796.203 593.884 795.216C600.353 793.331 604.685 788.676 603.559 784.811C602.432 780.946 596.276 779.342 589.807 781.227C583.338 783.112 579.008 787.773 580.133 791.632L590.558 827.402L558.962 847.343L550.451 818.141C552.993 818.89 556.269 818.879 559.658 817.892C566.127 816.006 570.458 811.349 569.331 807.48C568.205 803.618 562.05 802.017 555.581 803.902C549.112 805.788 544.781 810.445 545.907 814.308L561.444 867.614L598.83 844.014Z" fill="black"/>
<circle cx="457" cy="497" r="399" stroke="black" stroke-width="2"/>
<circle cx="457" cy="425" r="399" stroke="black" stroke-width="2"/>
<circle cx="457" cy="488" r="424" stroke="black" stroke-width="2"/>
<circle cx="457" cy="400" r="399" stroke="black" stroke-width="2"/>
<circle cx="432" cy="425" r="424" stroke="black" stroke-width="2"/>
<defs>
<clipPath id="clip0_5_2">
<rect width="705" height="251" fill="white" transform="translate(128 247)"/>
</clipPath>
</defs>
</svg>
